<?xml version="1.0" encoding="UTF-8"?>
<svg width="18px" height="24px" viewBox="0 0 18 24" version="1.1" xmlns="http://www.w3.org/2000/svg">
    <g stroke="none" stroke-width="1" fill="none" fill-rule="evenodd">
        <path d="M0,7.02352941 L4.87058824,7.02352941 L4.87058824,9.88235294 L9.21176471,9.88235294 C11.047068,9.88235294 11.9647059,8.92942129 11.9647059,7.02352941 C11.9647059,5.11763753 11.0353034,4.16470588 9.17647059,4.16470588 L4.87058824,4.16470588 L0,4.16470588 L0,0 L9.42352941,0 C11.9176595,0 13.7882291,0.499995 15.0352941,1.5 C16.2823592,2.500005 16.9058824,4.11763588 16.9058824,6.35294118 C16.9058824,7.69412435 16.7058844,8.75881959 16.3058824,9.54705882 C15.9058804,10.3352981 15.2235342,11.0352911 14.2588235,11.6470588 C15.3176524,12.0941199 16.0999975,12.7411722 16.6058824,13.5882353 C17.1117672,14.4352984 17.3647059,15.6117572 17.3647059,17.1176471 C17.3647059,19.4470705 16.6823598,21.1764649 15.3176471,22.3058824 C13.9529344,23.4352998 12.0353065,24 9.56470588,24 L0,24 L0,7.02352941 Z M9.31764706,13.9764706 L4.87058824,13.9764706 L4.87058824,19.8352941 L9.31764706,19.8352941 C10.3764759,19.8352941 11.158821,19.6235315 11.6647059,19.2 C12.1705908,18.7764685 12.4235294,18.0000056 12.4235294,16.8705882 C12.4235294,14.9411668 11.3882456,13.9764706 9.31764706,13.9764706 Z" id="B" fill="#FFFFFF" fill-rule="nonzero"></path>
    </g>
</svg>
